<svg width="512" height="512" viewBox="0 0 512 512" xmlns="http://www.w3.org/2000/svg">
  <defs>
    <linearGradient id="bg" x1="0%" y1="0%" x2="100%" y2="100%">
      <stop offset="0%" stop-color="#1e3a5f"/>
      <stop offset="100%" stop-color="#16294a"/>
    </linearGradient>
  </defs>
  <rect width="512" height="512" rx="96" fill="url(#bg)"/>

  <!-- Corner scan brackets -->
  <g stroke="#e6a817" stroke-width="18" stroke-linecap="round" fill="none">
    <path d="M 130 170 L 130 130 L 170 130"/>
    <path d="M 382 130 L 422 130 L 422 170"/>
    <path d="M 422 342 L 422 382 L 382 382"/>
    <path d="M 170 382 L 130 382 L 130 342"/>
  </g>

  <!-- Barcode bars in the center -->
  <g fill="#f8fafc">
    <rect x="172" y="206" width="14" height="100"/>
    <rect x="198" y="206" width="8" height="100"/>
    <rect x="220" y="206" width="20" height="100"/>
    <rect x="252" y="206" width="8" height="100"/>
    <rect x="272" y="206" width="14" height="100"/>
    <rect x="298" y="206" width="20" height="100"/>
    <rect x="330" y="206" width="8" height="100"/>
  </g>

  <!-- Scan line -->
  <rect x="120" y="256" width="272" height="10" rx="5" fill="#e6a817" opacity="0.9"/>
</svg>
